<svg width="30" height="30" viewBox="0 0 400 400" xmlns="http://www.w3.org/2000/svg">
    
  <!-- Source: https://www.iconfinder.com/icons/1099097/build_develop_developing_folder_xcode_icon -->

  <g transform="scale(1.183) translate(-103, -17)">

    <path fill="#ffffff" d="M0 0c8.4-1.1 16.7-2.2 24.9-3.5.7-.1 1.6-1.9 1.5-2.7-1-6.6-2.2-13.3-3.6-19.8-.2-1-1.9-2.4-2.9-2.4-4.2.3-8.4.9-12.6 1.6-2.1.3-3.6 1.3-2.4 4.3 3.8-.5 7.7-1.1 11.6-1.4.9-.1 2.6.7 2.7 1.3 1.1 5 1.9 10.2 2.9 15.5-6.5.9-12.6 1.7-18.6 2.5-2.2.3-4.2.8-3.5 4.6zM268.5 158.5c-6.7-2-13.1-3.8-19.4-5.6-2.3-.7-1.9-2.1-1.4-3.8 3.7-13.1 7.3-26.2 11.1-39.2 3.6-12.3 6-24.8 4.9-37.6-.8-9.2-2.1-18.2-8.2-26-5.7-7.3-13.4-10.2-22-11.3-12.7-1.7-25.3-1.5-38.6-.4 1.3-1.1 2.4-2.4 3.8-3.4 9.7-6.9 20.9-10 32.4-11.8 24-3.8 47.2-.2 69.9 7.6 7.9 2.7 14.5 7.3 20.3 13.1 5.5 5.5 11.7 6.6 18.5 3.8 4.2-1.8 7.8-1.2 11.8.2 9.6 3.4 9.6 3.3 6.7 13.2-2.6 8.7-5.2 17.4-7.7 26.2-.8 2.7-1.9 3.8-4.8 2.8-2.1-.8-4.3-1.4-6.5-1.7-4.7-.7-8.1-3-10.9-7-4.5-6.1-11.3-5.6-17.8-4.9-9.8 1.1-16.1 6.4-19.8 15.8-8.3 20.9-14.4 42.5-20.4 64.1-.6 1.8-1.2 3.6-1.9 5.9zM207 355.1c-14.5-.1-24-9.5-23.5-23.2.1-2.3.8-4.7 1.6-6.9C204 271.1 223 217.3 242 163.5c2.2-6.4.8-6.6 8.5-4.4 4.2 1.2 8.4 2.5 12.6 3.5 3.1.7 3.9 2 3.1 5.2-4 16.5-7.7 33-11.6 49.5-9.5 39.7-19 79.5-28.6 119.2-.9 3.7-2.4 7.4-4.3 10.7-3.3 5.5-8.4 8.4-14.7 7.9z"/>
  </g>

  <path fill="#fff" d="
    M160 100
    L10 100
    L10 300
    L80 300
    l8 -20
    L30 280
    L30 120
    L154 120
    Z
  " />

  <path fill="#fff" d="
    M245 100
    L238 120
    L350 120
    L350 280
    L198 280
    l-4.5 20
    L370 300
    L370 100
    Z
  " />

  <!--
  <path stroke="#fff" fill="24" d="M160 100 L60 100 L60 300 L130 300" />
  -->

</svg>
